<?xml version="1.0" encoding="utf-8"?>
<!-- Generator: Adobe Illustrator 24.3.0, SVG Export Plug-In . SVG Version: 6.00 Build 0)  -->
<svg version="1.1" id="Layer_1" xmlns="http://www.w3.org/2000/svg" xmlns:xlink="http://www.w3.org/1999/xlink" x="0px" y="0px"
	 viewBox="0 0 512 512" style="enable-background:new 0 0 512 512;" xml:space="preserve">
<style type="text/css">
	.st0{fill:url(#SVGID_1_);}
	.st1{fill:url(#SVGID_2_);}
	.st2{fill:url(#SVGID_3_);}
	.st3{display:none;fill:url(#SVGID_4_);}
	.st4{display:none;fill:url(#SVGID_5_);}
	.st5{fill:url(#SVGID_6_);}
	.st6{display:none;fill:url(#SVGID_7_);}
	.st7{display:none;}
	.st8{display:inline;}
</style>
<g>
	<linearGradient id="SVGID_1_" gradientUnits="userSpaceOnUse" x1="90.6188" y1="498.0213" x2="161.8759" y2="293.7935">
		<stop  offset="0.5291" style="stop-color:#E94E1B"/>
		<stop  offset="0.6506" style="stop-color:#E8481A"/>
		<stop  offset="0.8116" style="stop-color:#E63618"/>
		<stop  offset="0.9941" style="stop-color:#E30A13"/>
		<stop  offset="1" style="stop-color:#E30613"/>
	</linearGradient>
	<polygon class="st0" points="185.2,392.3 159.1,464.3 44.7,464.3 114.5,283.2 	"/>
	<linearGradient id="SVGID_2_" gradientUnits="userSpaceOnUse" x1="248.2531" y1="68.2557" x2="153.806" y2="328.3996">
		<stop  offset="0" style="stop-color:#E30613"/>
		<stop  offset="1.547685e-03" style="stop-color:#E30914"/>
		<stop  offset="3.110633e-02" style="stop-color:#E5221E"/>
		<stop  offset="6.774510e-02" style="stop-color:#E62D25"/>
		<stop  offset="0.1193" style="stop-color:#E63229"/>
		<stop  offset="0.2626" style="stop-color:#E6332A"/>
		<stop  offset="0.3146" style="stop-color:#EA5825"/>
		<stop  offset="0.3699" style="stop-color:#EE731A"/>
		<stop  offset="0.4248" style="stop-color:#F1840A"/>
		<stop  offset="0.4783" style="stop-color:#F28F00"/>
		<stop  offset="0.5291" style="stop-color:#F39200"/>
		<stop  offset="0.6219" style="stop-color:#EE7302"/>
		<stop  offset="0.7358" style="stop-color:#E94E0E"/>
		<stop  offset="0.8407" style="stop-color:#E53012"/>
		<stop  offset="0.9321" style="stop-color:#E41713"/>
		<stop  offset="1" style="stop-color:#E30613"/>
	</linearGradient>
	<path class="st1" d="M204.9,47.7l54,141.3l-46.4,127.8c-5.4-0.6-37-4.6-58.5-33.1c-19.5-25.8-17.3-53.9-16.6-60.1
		C159.9,164.9,182.4,106.3,204.9,47.7z"/>
	<linearGradient id="SVGID_3_" gradientUnits="userSpaceOnUse" x1="130.3567" y1="299.9902" x2="498.0939" y2="422.1455">
		<stop  offset="0" style="stop-color:#F39200"/>
		<stop  offset="7.305777e-02" style="stop-color:#EF7900"/>
		<stop  offset="0.1659" style="stop-color:#EB5F0A"/>
		<stop  offset="0.2685" style="stop-color:#E74510"/>
		<stop  offset="0.383" style="stop-color:#E53112"/>
		<stop  offset="0.5157" style="stop-color:#E41F13"/>
		<stop  offset="0.6833" style="stop-color:#E30E13"/>
		<stop  offset="1" style="stop-color:#E30613"/>
	</linearGradient>
	<path class="st2" d="M108,300.2c-20.1,52.5,25.1,91.9,81.3,92.1c0.6,0,1.2,0,1.8,0c72.7,0.2,145.4-0.4,145.4-0.4l-30-82.2h-86.8
		c-45.2,0-82.5-38.1-82.5-83.3c0-0.9,0-1.9,0.1-2.8L108,300.2z"/>
	<linearGradient id="SVGID_4_" gradientUnits="userSpaceOnUse" x1="306.2056" y1="308.9041" x2="307.0361" y2="310.6342">
		<stop  offset="0" style="stop-color:#0072BB"/>
		<stop  offset="1" style="stop-color:#27358B"/>
	</linearGradient>
	<path class="st3" d="M305.1,309.6c0.9,0.1,1.9,0.1,2.9,0.1L305.1,309.6L305.1,309.6z"/>
	<linearGradient id="SVGID_5_" gradientUnits="userSpaceOnUse" x1="279.6074" y1="242.6852" x2="156.3604" y2="293.8069">
		<stop  offset="0" style="stop-color:#FFFFFF"/>
		<stop  offset="1" style="stop-color:#008D36"/>
	</linearGradient>
	<path class="st4" d="M306.6,309.6c-18.3,0.7-36.6,1.2-54.9,1.4c-9.2,0.2-18.3,0.2-27.5,0.2c-4.5-0.1-9.2,0.3-13.9-0.4
		c-4.6-0.6-9.2-1.7-13.7-2.9c-17.8-5.3-34.5-16.1-44.8-31.7c-2.9-3.7-4.6-8.1-6.8-12.2c-1.8-4.2-3.1-8.7-4.6-13.1
		c-0.8-4.6-1.7-9.1-2.3-13.6l-0.7-13.7c1.3,18.2,6.1,36.5,16.9,50.9c10.4,14.6,26.2,24.9,43.5,29.7c4.3,1.2,8.7,2.3,13.1,2.9
		c4.4,0.8,8.8,0.5,13.5,0.6c9.1,0.1,18.3,0.1,27.4,0.3C270,308.3,288.3,308.9,306.6,309.6z"/>
	<linearGradient id="SVGID_6_" gradientUnits="userSpaceOnUse" x1="266.3859" y1="60.5351" x2="417.7656" y2="443.5247">
		<stop  offset="0" style="stop-color:#E94E1B"/>
		<stop  offset="0.1405" style="stop-color:#EC6516"/>
		<stop  offset="0.3201" style="stop-color:#EF7A0B"/>
		<stop  offset="0.5129" style="stop-color:#F18700"/>
		<stop  offset="0.7261" style="stop-color:#F39000"/>
		<stop  offset="1" style="stop-color:#F39200"/>
	</linearGradient>
	<polygon class="st5" points="479.9,464.3 323,47.7 204.9,47.7 364.2,464.3 	"/>
	<linearGradient id="SVGID_7_" gradientUnits="userSpaceOnUse" x1="203.0705" y1="256" x2="366.09" y2="256">
		<stop  offset="0" style="stop-color:#FFFFFF"/>
		<stop  offset="1" style="stop-color:#2E7FC3"/>
	</linearGradient>
	<path class="st6" d="M204.9,47.7c14,34.5,27.7,69,41.2,103.6l40.3,104l39.4,104.3c13,34.8,25.8,69.7,38.4,104.7
		c-14-34.5-27.7-69-41.3-103.6l-40.3-104l-39.4-104.3C230.3,117.6,217.5,82.6,204.9,47.7z"/>
</g>
<g class="st7">
	<path class="st8" d="M75.4,468.9H51.6l-2.7,5.6c-0.6,1.4-1,2.4-1,3.2c0,1.5,1,2.4,3,2.8v1.3h-19v-1.3c1.2-0.2,2-0.5,2.6-1.1
		c0.6-0.5,1.2-1.6,2-3.1l18.9-38.2c0.7-1.4,1.1-2.7,1.1-3.8c0-1.3-0.9-2.2-2.6-3v-1.3H74v1.3c-1.7,0.7-2.5,1.7-2.5,3.1
		c0,1,0.4,2.3,1.2,3.7l19.6,37.1c1.1,2,1.9,3.3,2.5,3.9c0.6,0.6,1.6,1,2.8,1.3v1.3H76.4v-1.3c2-0.3,3-1.3,3-2.8c0-1-0.4-2.1-1.2-3.5
		L75.4,468.9z M71.7,461.7l-8.5-16.6l-8.1,16.6H71.7z"/>
	<path class="st8" d="M104.8,477.2v-42.3c0-1-0.2-1.7-0.6-2.2c-0.4-0.5-1.2-0.9-2.3-1.2v-1.3h30.4c6.3,0,11.3,0.8,14.9,2.4
		c5.1,2.2,8.8,5.9,11,11c1.6,3.6,2.4,7.7,2.4,12.5c0,8.8-2.6,15.5-7.9,20.1c-2.4,2-5.2,3.5-8.4,4.4c-3.2,0.9-7.2,1.4-12,1.4h-30.4
		v-1.3c1.1-0.3,1.8-0.7,2.3-1.2C104.6,478.9,104.8,478.1,104.8,477.2z M117.2,472.5h13.2c6.1,0,10.5-1.4,13.2-4.2
		c2.9-2.9,4.3-7,4.3-12.3s-1.4-9.4-4.3-12.3c-1.4-1.4-3.2-2.5-5.3-3.2c-2.1-0.7-4.7-1-7.9-1h-13.2V472.5z"/>
	<path class="st8" d="M183.8,434.8v42.3c0,1,0.2,1.7,0.6,2.2c0.4,0.5,1.2,0.9,2.3,1.3v1.3h-18.3v-1.3c1.1-0.3,1.8-0.7,2.3-1.2
		c0.4-0.5,0.7-1.3,0.7-2.2v-42.3c0-1-0.2-1.7-0.6-2.2c-0.4-0.5-1.2-0.9-2.3-1.2v-1.3h18.3v1.3c-1.1,0.3-1.9,0.7-2.3,1.2
		C184,433.2,183.8,433.9,183.8,434.8z"/>
	<path class="st8" d="M211.2,472.5h29c1,0,1.7-0.2,2.2-0.6c0.5-0.4,0.9-1.2,1.2-2.3h1.2v15.3h-1.2c-0.3-1.1-0.7-1.9-1.2-2.3
		c-0.5-0.4-1.3-0.6-2.2-0.6h-44.3v-1.3c1.1-0.3,1.8-0.7,2.3-1.2c0.4-0.5,0.7-1.3,0.7-2.2v-42.3c0-1-0.2-1.7-0.6-2.2
		c-0.4-0.5-1.2-0.9-2.3-1.2v-1.3h18.3v1.3c-1.1,0.3-1.9,0.7-2.3,1.2c-0.4,0.5-0.6,1.2-0.6,2.2V472.5z"/>
	<path class="st8" d="M289.4,468.9h-23.8l-2.7,5.6c-0.6,1.4-1,2.4-1,3.2c0,1.5,1,2.4,3,2.8v1.3h-19v-1.3c1.2-0.2,2-0.5,2.6-1.1
		c0.6-0.5,1.2-1.6,2-3.1l18.9-38.2c0.7-1.4,1.1-2.7,1.1-3.8c0-1.3-0.9-2.2-2.6-3v-1.3H288v1.3c-1.7,0.7-2.5,1.7-2.5,3.1
		c0,1,0.4,2.3,1.2,3.7l19.6,37.1c1.1,2,1.9,3.3,2.5,3.9c0.6,0.6,1.6,1,2.8,1.3v1.3h-21.1v-1.3c2-0.3,3-1.3,3-2.8
		c0-1-0.4-2.1-1.2-3.5L289.4,468.9z M285.6,461.7l-8.5-16.6l-8.1,16.6H285.6z"/>
	<path class="st8" d="M331.1,460.6v16.5c0,1,0.2,1.7,0.6,2.2c0.4,0.5,1.2,0.9,2.3,1.3v1.3h-18.3v-1.3c1.1-0.3,1.8-0.7,2.3-1.2
		s0.7-1.3,0.7-2.2v-42.3c0-1-0.2-1.7-0.6-2.2c-0.4-0.5-1.2-0.9-2.3-1.2v-1.3h33.7c6.7,0,11.7,1,15.1,3c2,1.2,3.5,2.8,4.6,5
		s1.7,4.6,1.7,7.3c0,5.1-1.8,9-5.3,11.5s-8.9,3.8-16.1,3.8H331.1z M331.1,451.3h17.6c3.2,0,5.5-0.3,6.7-0.9c1.8-0.9,2.8-2.5,2.8-4.9
		c0-2.4-0.9-4-2.8-4.9c-1.2-0.6-3.5-0.9-6.7-0.9h-17.6V451.3z"/>
	<path class="st8" d="M392.8,460.6v16.5c0,1,0.2,1.7,0.6,2.2c0.4,0.5,1.2,0.9,2.3,1.3v1.3h-18.3v-1.3c1.1-0.3,1.8-0.7,2.3-1.2
		s0.7-1.3,0.7-2.2v-42.3c0-1-0.2-1.7-0.6-2.2c-0.4-0.5-1.2-0.9-2.3-1.2v-1.3h33.7c6.7,0,11.7,1,15.1,3c2,1.2,3.5,2.8,4.6,5
		s1.7,4.6,1.7,7.3c0,5.1-1.8,9-5.3,11.5s-8.9,3.8-16.1,3.8H392.8z M392.8,451.3h17.6c3.2,0,5.5-0.3,6.7-0.9c1.8-0.9,2.8-2.5,2.8-4.9
		c0-2.4-0.9-4-2.8-4.9c-1.2-0.6-3.5-0.9-6.7-0.9h-17.6V451.3z"/>
	<path class="st8" d="M488.9,434.8l-6.2,12.1l-1.1-0.6c0-1-0.3-1.8-1-2.4c-1.8-1.6-4.3-2.9-7.8-3.9c-3.4-1-6.9-1.5-10.4-1.5
		c-3,0-5.6,0.4-7.9,1.2c-3.3,1.2-5,2.9-5,5.2c0,1.5,0.8,2.6,2.4,3.2c1.6,0.6,4.7,1.1,9.3,1.5l7.3,0.6c6.4,0.5,11.2,1.7,14.6,3.7
		c1.8,1.1,3.4,2.6,4.6,4.4c1.5,2.3,2.3,4.9,2.3,7.8c0,5.3-2.4,9.4-7.1,12.5c-4.5,2.9-10.7,4.4-18.4,4.4c-7.8,0-15.3-1.6-22.6-4.9
		c-0.5-0.2-0.9-0.3-1.2-0.3c-0.6,0-1.2,0.4-1.7,1.1l-1.2-0.5l5.3-12.7l1.2,0.5c0,0.2,0,0.3,0,0.4c0,0.8,0.3,1.5,0.9,2
		c1.5,1.4,4.2,2.5,8,3.5c3.8,1,7.5,1.5,11.2,1.5c3.3,0,6.2-0.4,8.8-1.3c3.2-1,4.8-2.7,4.8-5.1c0-1.9-1.1-3.2-3.3-3.9
		c-1.5-0.5-4.1-0.9-8-1.2l-7.3-0.6c-3.9-0.3-6.9-0.7-9-1.2s-3.9-1.2-5.4-2.2c-2-1.2-3.5-2.9-4.6-5c-1.1-2.1-1.7-4.5-1.7-7
		c0-5.7,2.4-10,7.3-13c4.4-2.7,9.9-4.1,16.4-4.1c3.5,0,6.8,0.4,9.9,1.2c3.1,0.8,6.7,2.2,11,4.1c1.3,0.6,2.1,0.9,2.6,0.9
		c0.5,0,1.1-0.3,1.9-1L488.9,434.8z"/>
</g>
</svg>
